<mxfile host="app.diagrams.net" modified="2024-01-12T00:19:37.199Z" agent="Mozilla/5.0 (Windows NT 6.1; Win64; x64; rv:109.0) Gecko/20100101 Firefox/115.0" etag="45f32TL6_kjR9hV0iCsy" version="22.1.18" type="device">
  <diagram name="Page-1" id="Kvws9Xqv4Xz1Rpp0DfEz">
    <mxGraphModel dx="880" dy="470" grid="1" gridSize="10" guides="1" tooltips="1" connect="1" arrows="1" fold="1" page="1" pageScale="1" pageWidth="850" pageHeight="1100" math="0" shadow="0">
      <root>
        <mxCell id="0" />
        <mxCell id="1" parent="0" />
        <mxCell id="BYhRD98PBJtHSbziE2_4-1" value="&lt;font style=&quot;font-size: 20px;&quot;&gt;ID&amp;nbsp;&amp;nbsp;&amp;nbsp; |&amp;nbsp;&amp;nbsp;&amp;nbsp; User_Url&amp;nbsp;&amp;nbsp;&amp;nbsp; |&amp;nbsp;&amp;nbsp;&amp;nbsp; Shortened_Url&amp;nbsp;&amp;nbsp; |&amp;nbsp;&amp;nbsp; Created_On&lt;br&gt;&lt;/font&gt;" style="rounded=0;whiteSpace=wrap;html=1;" parent="1" vertex="1">
          <mxGeometry x="60" y="60" width="700" height="40" as="geometry" />
        </mxCell>
        <mxCell id="gXh4-3fEw6AnRpfHHmHf-2" style="edgeStyle=orthogonalEdgeStyle;rounded=0;orthogonalLoop=1;jettySize=auto;html=1;" parent="1" source="gXh4-3fEw6AnRpfHHmHf-1" target="gXh4-3fEw6AnRpfHHmHf-3" edge="1">
          <mxGeometry relative="1" as="geometry">
            <mxPoint x="230" y="330" as="targetPoint" />
          </mxGeometry>
        </mxCell>
        <mxCell id="gXh4-3fEw6AnRpfHHmHf-1" value="Actor" style="shape=umlActor;verticalLabelPosition=bottom;verticalAlign=top;html=1;outlineConnect=0;" parent="1" vertex="1">
          <mxGeometry x="60" y="300" width="30" height="60" as="geometry" />
        </mxCell>
        <mxCell id="gXh4-3fEw6AnRpfHHmHf-12" style="edgeStyle=orthogonalEdgeStyle;rounded=0;orthogonalLoop=1;jettySize=auto;html=1;entryX=0;entryY=0.5;entryDx=0;entryDy=0;" parent="1" source="gXh4-3fEw6AnRpfHHmHf-3" target="gXh4-3fEw6AnRpfHHmHf-8" edge="1">
          <mxGeometry relative="1" as="geometry" />
        </mxCell>
        <mxCell id="gXh4-3fEw6AnRpfHHmHf-3" value="Load Balancer" style="rounded=1;whiteSpace=wrap;html=1;" parent="1" vertex="1">
          <mxGeometry x="190" y="230" width="120" height="200" as="geometry" />
        </mxCell>
        <mxCell id="gXh4-3fEw6AnRpfHHmHf-17" style="edgeStyle=orthogonalEdgeStyle;rounded=0;orthogonalLoop=1;jettySize=auto;html=1;entryX=0;entryY=0.5;entryDx=0;entryDy=0;" parent="1" source="gXh4-3fEw6AnRpfHHmHf-8" target="gXh4-3fEw6AnRpfHHmHf-14" edge="1">
          <mxGeometry relative="1" as="geometry" />
        </mxCell>
        <mxCell id="gXh4-3fEw6AnRpfHHmHf-22" style="edgeStyle=orthogonalEdgeStyle;rounded=0;orthogonalLoop=1;jettySize=auto;html=1;" parent="1" source="gXh4-3fEw6AnRpfHHmHf-8" target="gXh4-3fEw6AnRpfHHmHf-23" edge="1">
          <mxGeometry relative="1" as="geometry">
            <mxPoint x="440" y="500" as="targetPoint" />
          </mxGeometry>
        </mxCell>
        <mxCell id="gXh4-3fEw6AnRpfHHmHf-8" value="" style="rounded=1;whiteSpace=wrap;html=1;" parent="1" vertex="1">
          <mxGeometry x="370" y="230" width="140" height="200" as="geometry" />
        </mxCell>
        <mxCell id="gXh4-3fEw6AnRpfHHmHf-9" value="SERVER" style="rounded=1;whiteSpace=wrap;html=1;" parent="1" vertex="1">
          <mxGeometry x="385" y="250" width="110" height="40" as="geometry" />
        </mxCell>
        <mxCell id="gXh4-3fEw6AnRpfHHmHf-10" value="SERVER" style="rounded=1;whiteSpace=wrap;html=1;" parent="1" vertex="1">
          <mxGeometry x="385" y="310" width="110" height="40" as="geometry" />
        </mxCell>
        <mxCell id="gXh4-3fEw6AnRpfHHmHf-11" value="SERVER" style="rounded=1;whiteSpace=wrap;html=1;" parent="1" vertex="1">
          <mxGeometry x="385" y="370" width="110" height="40" as="geometry" />
        </mxCell>
        <mxCell id="gXh4-3fEw6AnRpfHHmHf-14" value="Cache Server" style="rounded=1;whiteSpace=wrap;html=1;" parent="1" vertex="1">
          <mxGeometry x="580" y="220" width="120" height="60" as="geometry" />
        </mxCell>
        <mxCell id="gXh4-3fEw6AnRpfHHmHf-15" value="DB" style="shape=cylinder3;whiteSpace=wrap;html=1;boundedLbl=1;backgroundOutline=1;size=15;" parent="1" vertex="1">
          <mxGeometry x="620" y="330" width="60" height="80" as="geometry" />
        </mxCell>
        <mxCell id="gXh4-3fEw6AnRpfHHmHf-18" style="edgeStyle=orthogonalEdgeStyle;rounded=0;orthogonalLoop=1;jettySize=auto;html=1;entryX=0;entryY=0.5;entryDx=0;entryDy=0;entryPerimeter=0;" parent="1" source="gXh4-3fEw6AnRpfHHmHf-8" target="gXh4-3fEw6AnRpfHHmHf-15" edge="1">
          <mxGeometry relative="1" as="geometry">
            <Array as="points">
              <mxPoint x="540" y="330" />
              <mxPoint x="540" y="370" />
            </Array>
          </mxGeometry>
        </mxCell>
        <mxCell id="gXh4-3fEw6AnRpfHHmHf-26" style="edgeStyle=orthogonalEdgeStyle;rounded=0;orthogonalLoop=1;jettySize=auto;html=1;" parent="1" source="gXh4-3fEw6AnRpfHHmHf-23" target="gXh4-3fEw6AnRpfHHmHf-25" edge="1">
          <mxGeometry relative="1" as="geometry" />
        </mxCell>
        <mxCell id="gXh4-3fEw6AnRpfHHmHf-23" value="Zoo-Keeper" style="rounded=1;whiteSpace=wrap;html=1;" parent="1" vertex="1">
          <mxGeometry x="380" y="490" width="120" height="40" as="geometry" />
        </mxCell>
        <mxCell id="gXh4-3fEw6AnRpfHHmHf-25" value="Key-Storage" style="shape=cylinder3;whiteSpace=wrap;html=1;boundedLbl=1;backgroundOutline=1;size=15;" parent="1" vertex="1">
          <mxGeometry x="385" y="590" width="110" height="80" as="geometry" />
        </mxCell>
        <mxCell id="FxKhThAB9eglt9JpnSir-1" value="DB-Schema" style="text;html=1;strokeColor=none;fillColor=none;align=center;verticalAlign=middle;whiteSpace=wrap;rounded=0;fontStyle=1" vertex="1" parent="1">
          <mxGeometry x="350" y="100" width="120" height="30" as="geometry" />
        </mxCell>
      </root>
    </mxGraphModel>
  </diagram>
</mxfile>
